<svg width="188" height="146" viewBox="0 0 188 146" fill="none" xmlns="http://www.w3.org/2000/svg">
<mask id="mask0_682_2136" style="mask-type:luminance" maskUnits="userSpaceOnUse" x="38" y="28" width="111" height="86">
<path d="M38.8965 28.1552H148.986V113.001H38.8965V28.1552Z" fill="white"/>
</mask>
<g mask="url(#mask0_682_2136)">
<path d="M83.3246 113.155L75.2315 73.0652L69.6364 82.7798H38.8965L66.7987 77.8641L77.4739 59.3332L82.89 86.1727L92.6667 28.1514L102.655 89.434L106.512 77.8641L148.811 82.7798H110.054L101.015 109.893L92.5864 58.1937L83.3246 113.155Z" fill="#F51678"/>
</g>
<mask id="mask1_682_2136" style="mask-type:luminance" maskUnits="userSpaceOnUse" x="43" y="64" width="19" height="31">
<path d="M43.2969 64.7092H61.6196V94.2402H43.2969V64.7092Z" fill="white"/>
</mask>
<g mask="url(#mask1_682_2136)">
<path d="M43.2969 64.7092H61.6196V94.2695H43.2969V64.7092Z" fill="#F6E7D8"/>
</g>
<mask id="mask2_682_2136" style="mask-type:luminance" maskUnits="userSpaceOnUse" x="38" y="70" width="11" height="19">
<path d="M38.1953 70.7645H48.3993V88.1851H38.1953V70.7645Z" fill="white"/>
</mask>
<g mask="url(#mask2_682_2136)">
<path d="M38.1953 70.7645H48.3993V88.1814H38.1953V70.7645Z" fill="#F6E7D8"/>
</g>
<mask id="mask3_682_2136" style="mask-type:luminance" maskUnits="userSpaceOnUse" x="77" y="40" width="51" height="59">
<path d="M77.4375 40.5102H127.924V98.7104H77.4375V40.5102Z" fill="white"/>
</mask>
<g mask="url(#mask3_682_2136)">
<path d="M78.204 89.3537C78.7664 89.3245 79.2485 88.773 79.7707 87.8381C80.2966 86.9032 82.1738 86.3407 82.4551 86.2677C82.7363 86.1983 82.6669 86.3298 82.6669 86.4284C82.6669 86.5306 82.5354 86.6402 82.3455 86.7315C82.1556 86.8228 82.0241 86.8118 81.7831 86.9032C81.542 86.9945 81.5493 87.4035 81.6698 87.2136C81.794 87.0237 82.2651 87.0638 82.6778 86.8739C83.0905 86.6804 83.2293 86.0376 83.2695 85.939C83.3097 85.8367 83.4192 85.939 83.7406 85.939C84.062 85.939 83.9524 85.7673 83.8721 85.687C83.7917 85.6066 83.8721 85.5555 83.9232 85.4861C83.9743 85.4167 84.6573 85.2232 86.2131 85.004C87.7725 84.7813 89.4817 84.9821 91.3115 85.183C93.1375 85.3839 94.0652 85.3547 95.3288 85.2049C96.5961 85.0515 98.3747 85.3656 98.9882 85.4058C99.6018 85.446 100.394 85.1136 100.675 84.8616C100.957 84.6096 101.117 84.2882 101.782 83.8463C102.447 83.4044 103.32 82.4695 103.32 82.4695C103.32 82.4695 103.36 82.4914 103.531 82.4695C103.703 82.4512 103.703 82.2394 104.043 81.9691C104.386 81.6952 105.409 80.5704 106.296 79.5551C107.18 78.5398 108.144 76.8416 108.144 76.8416C108.144 76.8416 108.557 77.2762 109.331 77.8568C110.105 78.4412 110.554 78.58 110.978 78.9233C111.402 79.2629 111.391 79.1132 111.391 79.1132C111.391 79.1132 111.822 79.2446 112.728 79.6245C113.63 80.0079 114.948 81.0232 115.109 81.162C115.269 81.3044 115.109 82.2686 115.006 83.6856C114.908 85.1027 115.321 86.2896 115.792 87.0529C116.263 87.8162 117.198 91.052 117.501 91.9577C117.804 92.8634 117.994 94.5909 117.972 94.6603C117.954 94.7333 117.892 94.8429 117.862 94.9123C117.833 94.9816 117.753 95.2738 117.691 95.6463C117.632 96.0189 117.632 96.7529 117.844 97.1145C118.052 97.4761 117.702 97.5454 117.724 98.0677C117.742 98.5899 119.542 98.5206 119.751 98.5206C119.962 98.5206 121.42 98.4585 122.848 98.3306C124.276 98.1992 125.452 97.8084 126.635 97.1948C127.822 96.5813 127.402 96.0882 127.139 95.8253C126.876 95.566 126.313 95.6244 125.24 95.6171C124.162 95.6062 123.008 94.821 122.676 94.6164C122.344 94.4083 122.384 94.3608 122.464 94.2804C122.544 94.2001 122.957 94.6603 123.22 94.6091C123.479 94.5617 123.1 94.4484 122.716 94.149C122.336 93.8458 122.274 94.0869 121.975 93.886C121.672 93.6851 121.854 93.6048 121.683 93.477C121.511 93.3455 121.409 93.4368 121.339 93.4039C121.27 93.3747 121.047 93.2031 121.047 93.2031C121.047 93.2031 120.678 92.1184 120.225 90.7817C119.772 89.445 119.831 87.6774 119.827 86.4685C119.824 85.2633 119.349 83.2328 119.301 82.2686C119.25 81.3044 119.268 80.7311 119.469 80.238C119.67 79.745 119.561 79.073 119.159 78.5507C118.757 78.0285 118.827 77.4551 118.092 76.721C117.358 75.987 116.979 75.3734 116.938 75.304C116.898 75.2346 116.748 75.1835 116.796 75.0849C116.847 74.9826 116.807 74.9717 116.635 74.8219C116.467 74.6722 115.883 73.8979 115.24 73.3246C114.597 72.7512 113.509 71.5861 113.502 71.535C113.491 71.4839 112.826 70.9032 112.728 70.7608C112.625 70.622 111.964 70.118 111.804 70.0267C111.643 69.939 111.723 69.5957 111.752 69.457C111.782 69.3145 111.982 68.1495 112.114 67.7952C112.245 67.4446 112.395 66.9443 112.465 66.6412C112.538 66.338 112.837 65.5857 113.14 64.7603C113.44 63.9386 113.239 63.8363 113.239 63.8363C113.239 63.8363 113.962 63.7158 114.426 63.5442C114.886 63.3762 115.2 63.0146 115.591 62.843C115.982 62.6713 116.708 62.4814 116.916 62.3207C117.128 62.16 117.431 62.0578 117.57 62.0578C117.713 62.0578 118.125 61.9482 118.607 61.7181C119.09 61.4844 119.422 60.9621 119.462 60.8927C119.502 60.8233 119.743 60.7503 119.813 60.5202C119.882 60.2901 119.71 60.1075 119.59 60.0893C119.469 60.0673 119.641 59.8592 119.681 59.7679C119.721 59.6766 119.743 59.4538 119.623 59.326C119.502 59.1945 119.342 59.3041 119.342 59.3041C119.342 59.3041 119.382 59.1543 119.342 58.9023C119.301 58.6503 119.17 58.5627 119.068 58.5298C118.969 58.5006 118.918 58.4093 118.947 58.3983C118.98 58.391 118.94 57.898 118.677 57.8286C118.414 57.7556 118.144 58.0368 118.144 58.0368C118.144 58.0368 118.125 57.7483 118.052 57.5255C117.983 57.3063 117.742 57.2954 117.672 57.5474C117.599 57.7957 117.479 57.8469 117.41 57.9382C117.34 58.0295 117.238 58.0477 117.117 58.3107C116.997 58.57 116.778 58.6321 116.716 58.6905C116.657 58.7526 116.445 58.9315 116.387 59.1653C116.325 59.3954 116.153 59.7971 115.963 60.0783C115.773 60.3595 115.218 60.3486 114.758 60.1879C114.294 60.0272 113.995 59.8774 113.995 59.8774C113.995 59.8774 114.064 59.2748 114.316 58.8731C114.565 58.4714 114.718 56.6417 114.707 56.5211C114.696 56.4006 114.718 56.1194 114.959 55.557C115.2 54.9945 114.926 53.9062 114.776 53.4351C114.627 52.964 114.817 53.0041 114.586 52.2007C114.356 51.3936 113.44 50.9918 113.44 50.9918C113.44 50.9918 113.995 50.853 114.787 50.9115C115.58 50.9736 115.671 50.4294 115.58 50.1884C115.492 49.9473 115.562 49.8377 115.751 49.5565C115.941 49.2753 115.58 49.2132 115.43 48.9832C115.28 48.7531 115.602 48.691 115.861 48.6727C116.124 48.6508 116.142 48.4609 116.164 48.3513C116.182 48.2381 116.285 47.9788 116.325 47.9788C116.365 47.9788 116.588 48.019 116.807 47.8181C117.03 47.6173 116.697 47.1352 116.405 46.7407C116.113 46.35 116.285 46.3208 116.274 46.098C116.263 45.8788 116.394 45.5867 116.274 45.4442C116.153 45.3055 116.073 44.9914 116.073 44.7102C116.073 44.429 115.952 44.1806 115.993 44.1806C116.033 44.1806 116.234 43.9396 116.219 43.7168C116.204 43.494 116.102 43.0923 116.073 42.9827C116.044 42.8731 116.113 42.8038 116.193 42.7125C116.274 42.6212 116.135 42.1683 116.124 42.3399C116.113 42.5116 115.821 42.2377 115.671 42.0989C115.521 41.9565 115.62 41.9893 115.562 41.7666C115.499 41.5474 115.229 41.5255 115.229 41.5255C115.229 41.5255 115.331 41.5657 115.459 41.8286C115.591 42.0879 114.535 41.5255 114.123 41.2553C113.71 40.9814 113.63 40.9412 112.687 40.8207C111.741 40.7001 112.596 40.7732 112.457 40.6417C112.315 40.5102 112.205 40.6928 111.541 40.7914C110.876 40.8937 111.592 40.6417 111.449 40.6417C111.31 40.6417 110.938 40.9814 110.916 40.8718C110.898 40.7622 110.788 40.8426 110.788 40.8426C110.916 40.8718 110.635 41.153 110.346 41.153C110.054 41.153 109.985 41.416 109.985 41.416C110.025 41.394 110.836 41.1238 110.306 41.416C109.773 41.7081 109.13 42.6029 108.977 43.7679C108.827 44.9329 108.988 46.2295 109.189 47.095C109.389 47.9569 109.05 48.8225 109.017 49.0233C108.988 49.2242 108.809 49.195 107.994 49.4871C107.18 49.7757 107.22 49.9071 107.037 50.1591C106.859 50.4111 106.698 50.349 106.336 50.4111C105.975 50.4696 105.098 51.0649 105.098 51.0649C104.686 51.3169 104.024 51.6163 102.969 52.1386C101.914 52.6608 100.756 53.4972 99.8428 54.0486C98.9261 54.6001 98.5171 55.1552 97.9948 55.4839C97.4689 55.8163 97.9547 57.0032 98.3637 58.2888C98.7764 59.5743 99.7807 60.5494 100.427 61.2835C101.07 62.0176 102.155 63.504 102.487 63.7852C102.816 64.0701 102.505 64.5923 102.505 65.1036C102.505 65.6149 103.02 66.0386 103.038 66.1299C103.06 66.2175 103.188 66.5608 103.21 66.601C103.228 66.6412 103.29 66.7507 103.188 66.8822C103.09 67.0137 102.717 67.6163 102.487 68.0801C102.253 68.5403 102.173 68.9712 102.173 68.9712C101.431 70.2093 102.012 72.4809 102.074 72.8206C102.133 73.1639 101.892 73.3136 101.804 73.5072C101.713 73.6971 100.968 74.811 100.336 75.7751C99.7004 76.7429 98.8056 78.8429 98.718 78.9817C98.6267 79.1241 98.6851 79.3944 98.6851 79.3944C98.6851 79.3944 98.4039 79.818 98.1628 80.0591C97.9218 80.3001 97.6004 80.7201 97.3886 80.8625C97.1804 81.0013 96.8079 80.8333 95.8218 80.5192C94.8358 80.2088 93.8132 80.3293 92.9878 80.3001C92.1624 80.2709 91.2092 80.8406 90.7563 81.0342C90.3035 81.2241 88.6783 81.5455 87.6119 81.7975C86.5454 82.0495 85.0481 82.2796 85.0188 82.2796C84.9896 82.2796 84.9275 82.0568 84.5769 81.7975C84.2227 81.5345 83.8027 81.2022 83.2914 80.8735C82.7764 80.5412 82.8276 80.2198 82.2359 79.9897C81.6406 79.7559 81.1001 81.0013 80.9175 81.4944C80.7386 81.9874 79.8511 83.4154 79.2814 84.2809C78.708 85.1428 78.0031 86.9141 77.7219 87.6957C77.4407 88.4809 77.6416 89.3866 78.204 89.3537ZM102.414 58.5517C102.286 57.5547 102.074 56.7403 102.103 56.7403C102.133 56.7403 103.762 56.7731 104.043 56.6709C104.043 56.6709 103.922 58.5408 104.043 59.998C104.163 61.4552 104.455 62.7517 104.455 62.7517C104.455 62.7517 104.054 62.1491 103.51 61.3054C102.969 60.4618 102.545 59.5451 102.414 58.5517Z" fill="#F6E7D8"/>
</g>
<mask id="mask4_682_2136" style="mask-type:luminance" maskUnits="userSpaceOnUse" x="96" y="28" width="53" height="86">
<path d="M96.6104 28.1552H148.5V113.001H96.6104V28.1552Z" fill="white"/>
</mask>
<g mask="url(#mask4_682_2136)">
<path d="M83.3246 113.155L75.2315 73.0653L69.6364 82.78H38.8965L66.7987 77.8642L77.4739 59.3333L82.89 86.1728L92.6667 28.1515L102.655 89.4341L106.512 77.8642L148.811 82.78H110.054L101.015 109.893L92.5864 58.1939L83.3246 113.155Z" fill="#F51678"/>
</g>
<mask id="mask5_682_2136" style="mask-type:luminance" maskUnits="userSpaceOnUse" x="103" y="71" width="25" height="28">
<path d="M103.627 71.4985H127.925V98.7105H103.627V71.4985Z" fill="white"/>
</mask>
<g mask="url(#mask5_682_2136)">
<path d="M78.204 89.3537C78.7664 89.3245 79.2485 88.773 79.7707 87.8381C80.2966 86.9032 82.1738 86.3407 82.4551 86.2677C82.7363 86.1983 82.6669 86.3298 82.6669 86.4284C82.6669 86.5306 82.5354 86.6402 82.3455 86.7315C82.1556 86.8228 82.0241 86.8118 81.7831 86.9032C81.542 86.9945 81.5493 87.4035 81.6698 87.2136C81.794 87.0237 82.2651 87.0638 82.6778 86.8739C83.0905 86.6804 83.2293 86.0376 83.2695 85.939C83.3097 85.8367 83.4192 85.939 83.7406 85.939C84.062 85.939 83.9524 85.7673 83.8721 85.687C83.7917 85.6066 83.8721 85.5555 83.9232 85.4861C83.9743 85.4167 84.6573 85.2232 86.2131 85.004C87.7725 84.7813 89.4817 84.9821 91.3115 85.183C93.1375 85.3839 94.0652 85.3547 95.3288 85.2049C96.5961 85.0515 98.3747 85.3656 98.9882 85.4058C99.6018 85.446 100.394 85.1136 100.675 84.8616C100.957 84.6096 101.117 84.2882 101.782 83.8463C102.447 83.4044 103.32 82.4695 103.32 82.4695C103.32 82.4695 103.36 82.4914 103.531 82.4695C103.703 82.4512 103.703 82.2394 104.043 81.9691C104.386 81.6952 105.409 80.5704 106.296 79.5551C107.18 78.5398 108.144 76.8416 108.144 76.8416C108.144 76.8416 108.557 77.2762 109.331 77.8568C110.105 78.4412 110.554 78.58 110.978 78.9233C111.402 79.2629 111.391 79.1132 111.391 79.1132C111.391 79.1132 111.822 79.2446 112.728 79.6245C113.63 80.0079 114.948 81.0232 115.109 81.162C115.269 81.3044 115.109 82.2686 115.006 83.6856C114.908 85.1027 115.321 86.2896 115.792 87.0529C116.263 87.8162 117.198 91.052 117.501 91.9577C117.804 92.8634 117.994 94.5909 117.972 94.6603C117.954 94.7297 117.892 94.8429 117.862 94.9123C117.833 94.9816 117.753 95.2738 117.691 95.6463C117.632 96.0189 117.632 96.7529 117.844 97.1145C118.052 97.4761 117.702 97.5454 117.724 98.0677C117.742 98.5899 119.542 98.5206 119.751 98.5206C119.962 98.5206 121.42 98.4585 122.848 98.3306C124.276 98.1992 125.452 97.8084 126.635 97.1948C127.822 96.5813 127.402 96.0882 127.139 95.8253C126.876 95.566 126.313 95.6244 125.24 95.6171C124.162 95.6062 123.008 94.821 122.676 94.6164C122.344 94.4083 122.384 94.3608 122.464 94.2804C122.544 94.2001 122.957 94.6603 123.22 94.6091C123.479 94.5617 123.1 94.4484 122.716 94.149C122.336 93.8458 122.274 94.0869 121.975 93.886C121.672 93.6851 121.854 93.6048 121.683 93.477C121.511 93.3455 121.409 93.4368 121.339 93.4039C121.27 93.3747 121.047 93.2031 121.047 93.2031C121.047 93.2031 120.678 92.1184 120.225 90.7817C119.772 89.445 119.831 87.6774 119.827 86.4685C119.824 85.2633 119.349 83.2328 119.301 82.2686C119.25 81.3044 119.268 80.7311 119.469 80.238C119.67 79.745 119.561 79.073 119.159 78.5507C118.757 78.0285 118.827 77.4551 118.092 76.721C117.358 75.987 116.979 75.3734 116.938 75.304C116.898 75.2346 116.748 75.1835 116.796 75.0849C116.847 74.9826 116.807 74.9717 116.635 74.8219C116.467 74.6722 115.883 73.8979 115.24 73.3246C114.597 72.7512 113.509 71.5861 113.502 71.535C113.491 71.4839 112.826 70.9032 112.728 70.7608C112.625 70.622 111.964 70.118 111.804 70.0267C111.643 69.939 111.723 69.5957 111.752 69.457C111.782 69.3145 111.982 68.1495 112.114 67.7952C112.245 67.4446 112.395 66.9443 112.465 66.6412C112.538 66.338 112.837 65.5857 113.14 64.7603C113.44 63.9386 113.239 63.8363 113.239 63.8363C113.239 63.8363 113.962 63.7158 114.426 63.5442C114.886 63.3762 115.2 63.0146 115.591 62.843C115.982 62.6713 116.708 62.4814 116.916 62.3207C117.128 62.16 117.431 62.0578 117.57 62.0578C117.713 62.0578 118.125 61.9482 118.607 61.7181C119.09 61.4844 119.422 60.9621 119.462 60.8927C119.502 60.8233 119.743 60.7503 119.813 60.5202C119.882 60.2901 119.71 60.1075 119.59 60.0893C119.469 60.0673 119.641 59.8592 119.681 59.7679C119.721 59.6766 119.743 59.4538 119.623 59.326C119.502 59.1945 119.342 59.3041 119.342 59.3041C119.342 59.3041 119.382 59.1543 119.342 58.9023C119.301 58.6503 119.17 58.5627 119.068 58.5298C118.969 58.5006 118.918 58.4093 118.947 58.3983C118.98 58.391 118.94 57.898 118.677 57.8286C118.414 57.7556 118.144 58.0368 118.144 58.0368C118.144 58.0368 118.125 57.7483 118.052 57.5255C117.983 57.3063 117.742 57.2954 117.672 57.5437C117.599 57.7957 117.479 57.8469 117.41 57.9382C117.34 58.0295 117.238 58.0477 117.117 58.3107C116.997 58.57 116.778 58.6321 116.716 58.6905C116.657 58.7526 116.445 58.9315 116.387 59.1653C116.325 59.3954 116.153 59.7971 115.963 60.0783C115.773 60.3595 115.218 60.3486 114.758 60.1879C114.294 60.0272 113.995 59.8774 113.995 59.8774C113.995 59.8774 114.064 59.2748 114.316 58.8731C114.565 58.4714 114.718 56.6417 114.707 56.5211C114.696 56.4006 114.718 56.1194 114.959 55.557C115.2 54.9945 114.926 53.9062 114.776 53.4351C114.627 52.964 114.817 53.0041 114.586 52.2007C114.356 51.3936 113.44 50.9918 113.44 50.9918C113.44 50.9918 113.995 50.853 114.787 50.9115C115.58 50.9736 115.671 50.4294 115.58 50.1884C115.492 49.9473 115.562 49.8377 115.751 49.5565C115.941 49.2753 115.58 49.2132 115.43 48.9832C115.28 48.7531 115.602 48.691 115.861 48.6727C116.124 48.6508 116.142 48.4609 116.164 48.3513C116.182 48.2381 116.285 47.9788 116.325 47.9788C116.365 47.9788 116.588 48.019 116.807 47.8181C117.03 47.6173 116.697 47.1352 116.405 46.7407C116.113 46.35 116.285 46.3208 116.274 46.098C116.263 45.8788 116.394 45.5867 116.274 45.4442C116.153 45.3055 116.073 44.9914 116.073 44.7102C116.073 44.429 115.952 44.1806 115.993 44.1806C116.033 44.1806 116.234 43.9396 116.219 43.7168C116.204 43.494 116.102 43.0923 116.073 42.9827C116.044 42.8731 116.113 42.8001 116.193 42.7125C116.274 42.6212 116.135 42.1683 116.124 42.3399C116.113 42.5116 115.821 42.2377 115.671 42.0989C115.521 41.9565 115.62 41.9893 115.562 41.7666C115.499 41.5474 115.229 41.5255 115.229 41.5255C115.229 41.5255 115.331 41.5657 115.459 41.8286C115.591 42.0879 114.535 41.5255 114.123 41.2553C113.71 40.9814 113.63 40.9412 112.687 40.8207C111.741 40.7001 112.596 40.7732 112.457 40.6417C112.315 40.5102 112.205 40.6928 111.541 40.7914C110.876 40.8937 111.592 40.6417 111.449 40.6417C111.31 40.6417 110.938 40.9814 110.916 40.8718C110.898 40.7622 110.788 40.8426 110.788 40.8426C110.916 40.8718 110.635 41.153 110.346 41.153C110.054 41.153 109.985 41.416 109.985 41.416C110.025 41.394 110.836 41.1238 110.306 41.416C109.773 41.7081 109.13 42.6029 108.977 43.7679C108.827 44.9329 108.988 46.2295 109.189 47.095C109.389 47.9569 109.05 48.8225 109.017 49.0233C108.988 49.2242 108.809 49.195 107.994 49.4871C107.18 49.7757 107.22 49.9071 107.037 50.1591C106.859 50.4111 106.698 50.349 106.336 50.4111C105.975 50.4696 105.098 51.0649 105.098 51.0649C104.686 51.3169 104.024 51.6163 102.969 52.1386C101.914 52.6608 100.756 53.4972 99.8428 54.0486C98.9261 54.6001 98.5171 55.1552 97.9948 55.4839C97.4689 55.8163 97.9547 57.0032 98.3637 58.2888C98.7764 59.5743 99.7807 60.5494 100.427 61.2835C101.07 62.0176 102.155 63.504 102.487 63.7852C102.816 64.0701 102.505 64.5923 102.505 65.1036C102.505 65.6149 103.02 66.0386 103.038 66.1299C103.06 66.2175 103.188 66.5608 103.21 66.601C103.228 66.6412 103.29 66.7507 103.188 66.8822C103.09 67.0137 102.717 67.6163 102.487 68.0801C102.253 68.5403 102.173 68.9712 102.173 68.9712C101.431 70.2093 102.012 72.4809 102.074 72.8206C102.133 73.1639 101.892 73.3136 101.804 73.5072C101.713 73.6971 100.968 74.811 100.336 75.7751C99.7004 76.7429 98.8056 78.8429 98.718 78.9817C98.6267 79.1241 98.6851 79.3944 98.6851 79.3944C98.6851 79.3944 98.4039 79.818 98.1628 80.0591C97.9218 80.3001 97.6004 80.7201 97.3886 80.8625C97.1804 81.0013 96.8079 80.8333 95.8218 80.5192C94.8358 80.2088 93.8132 80.3293 92.9878 80.3001C92.1624 80.2709 91.2092 80.8406 90.7563 81.0342C90.3035 81.2241 88.6783 81.5455 87.6119 81.7975C86.5454 82.0495 85.0481 82.2796 85.0188 82.2796C84.9896 82.2796 84.9275 82.0568 84.5769 81.7975C84.2227 81.5345 83.8027 81.2022 83.2914 80.8735C82.7764 80.5412 82.8276 80.2198 82.2359 79.9897C81.6406 79.7559 81.1001 81.0013 80.9175 81.4944C80.7386 81.9874 79.8511 83.4154 79.2814 84.2809C78.708 85.1428 78.0031 86.9141 77.7219 87.6957C77.4407 88.4809 77.6416 89.3866 78.204 89.3537ZM102.414 58.5517C102.286 57.5547 102.074 56.7403 102.103 56.7403C102.133 56.7403 103.762 56.7731 104.043 56.6709C104.043 56.6709 103.922 58.5408 104.043 59.998C104.163 61.4552 104.455 62.7517 104.455 62.7517C104.455 62.7517 104.054 62.1491 103.51 61.3054C102.969 60.4618 102.545 59.5451 102.414 58.5517Z" fill="#F6E7D8"/>
</g>
<mask id="mask6_682_2136" style="mask-type:luminance" maskUnits="userSpaceOnUse" x="45" y="64" width="4" height="31">
<path d="M45.8496 64.7092H48.1322V94.2402H45.8496V64.7092Z" fill="white"/>
</mask>
<g mask="url(#mask6_682_2136)">
<path d="M45.8496 64.7092H48.1322V94.2439H45.8496V64.7092Z" fill="#303030"/>
</g>
<path d="M21.9224 145.186C21.024 145.186 20.2132 145.055 19.4828 144.792C18.7523 144.521 18.1315 144.134 17.6275 143.637C17.1308 143.141 16.74 142.553 16.4588 141.87C16.1739 141.191 16.0352 140.446 16.0352 139.635V137.779C16.0352 137.381 16.1009 137.115 16.2397 136.976C16.3748 136.841 16.6414 136.772 17.0431 136.772H19.0591C19.4682 136.772 19.7384 136.841 19.8772 136.976C20.0123 137.115 20.0817 137.381 20.0817 137.779V139.795C20.0817 140.186 20.2059 140.511 20.4615 140.774C20.7245 141.03 21.0459 141.154 21.4257 141.154C21.8055 141.154 22.1196 141.03 22.3752 140.774C22.6382 140.511 22.7697 140.186 22.7697 139.795V126.005C22.7697 125.735 22.7185 125.552 22.6236 125.465C22.5359 125.377 22.3606 125.333 22.0977 125.333H19.2344C18.8254 125.333 18.5515 125.267 18.4163 125.129C18.2885 124.993 18.2264 124.727 18.2264 124.325V122.294C18.2264 121.896 18.2885 121.63 18.4163 121.491C18.5515 121.356 18.8254 121.286 19.2344 121.286H26.8016C27.2107 121.286 27.4773 121.356 27.6051 121.491C27.7402 121.63 27.8096 121.896 27.8096 122.294V139.635C27.8096 140.446 27.6672 141.191 27.386 141.87C27.112 142.553 26.7213 143.141 26.2173 143.637C25.7096 144.134 25.0924 144.521 24.362 144.792C23.6316 145.055 22.8172 145.186 21.9224 145.186Z" fill="#F6E7D8"/>
<path d="M38.2085 145.186C37.3101 145.186 36.4993 145.055 35.7689 144.792C35.0385 144.521 34.4176 144.134 33.9136 143.638C33.4169 143.141 33.0261 142.553 32.7449 141.87C32.4601 141.191 32.3213 140.446 32.3213 139.635V122.295C32.3213 121.897 32.387 121.63 32.5258 121.491C32.6609 121.356 32.9275 121.287 33.3293 121.287H36.3678C36.7659 121.287 37.0325 121.356 37.1713 121.491C37.3064 121.63 37.3758 121.897 37.3758 122.295V139.796C37.3758 140.186 37.5 140.511 37.7556 140.774C38.0186 141.03 38.34 141.154 38.7198 141.154C39.0996 141.154 39.4137 141.03 39.6694 140.774C39.9323 140.511 40.0638 140.186 40.0638 139.796V122.295C40.0638 121.897 40.1295 121.63 40.2683 121.491C40.4034 121.356 40.67 121.287 41.0718 121.287H43.0877C43.4968 121.287 43.767 121.356 43.9058 121.491C44.041 121.63 44.1103 121.897 44.1103 122.295V139.635C44.1103 140.446 43.9679 141.191 43.6867 141.87C43.4018 142.553 43.0074 143.141 42.5034 143.638C41.9958 144.134 41.3786 144.521 40.6481 144.792C39.925 145.055 39.1142 145.186 38.2085 145.186Z" fill="#F6E7D8"/>
<path d="M53.9981 145.186C52.088 145.186 50.5979 144.668 49.5279 143.623C48.4651 142.582 47.9355 141.194 47.9355 139.46V138.452C47.9355 138.054 48.0013 137.787 48.1401 137.648C48.2752 137.513 48.5418 137.444 48.9435 137.444H50.9595C51.3685 137.444 51.6388 137.513 51.7776 137.648C51.9127 137.787 51.9821 138.054 51.9821 138.452V139.635C51.9821 140.084 52.1172 140.449 52.3911 140.731C52.6724 141.015 53.0376 141.154 53.4868 141.154C53.9323 141.154 54.2975 141.015 54.5824 140.731C54.8636 140.449 55.0061 140.084 55.0061 139.635C55.0061 138.81 54.8344 138.068 54.4948 137.414C54.1624 136.764 53.7497 136.143 53.253 135.559C52.7564 134.975 52.2158 134.401 51.6315 133.835C51.0545 133.262 50.5213 132.63 50.0246 131.936C49.5279 131.235 49.1079 130.453 48.7682 129.584C48.4359 128.719 48.2715 127.692 48.2715 126.502C48.2715 125.695 48.4103 124.95 48.6952 124.267C48.9764 123.587 49.3672 122.996 49.8639 122.499C50.3679 122.002 50.9887 121.623 51.7191 121.36C52.4496 121.089 53.2603 120.951 54.1588 120.951C55.0535 120.951 55.8607 121.089 56.5838 121.36C57.3032 121.623 57.9205 122.002 58.4391 122.499C58.954 122.996 59.3521 123.587 59.637 124.267C59.9182 124.95 60.0606 125.695 60.0606 126.502V127.349C60.0606 127.751 59.9912 128.017 59.8561 128.153C59.7173 128.291 59.447 128.357 59.038 128.357H57.022C56.6203 128.357 56.3537 128.291 56.2186 128.153C56.0798 128.017 56.014 127.751 56.014 127.349V126.341C56.014 125.961 55.8826 125.647 55.6196 125.392C55.364 125.129 55.0499 124.997 54.6701 124.997C54.2902 124.997 53.9689 125.129 53.7059 125.392C53.4503 125.647 53.3261 125.961 53.3261 126.341C53.3261 127.188 53.4904 127.933 53.8228 128.576C54.1624 129.219 54.5751 129.833 55.0645 130.417C55.5612 130.994 56.1017 131.567 56.686 132.141C57.2704 132.718 57.8036 133.353 58.293 134.054C58.7897 134.748 59.206 135.53 59.5493 136.406C59.8889 137.283 60.0606 138.302 60.0606 139.46C60.0606 141.194 59.5237 142.582 58.4537 143.623C57.3909 144.668 55.9045 145.186 53.9981 145.186Z" fill="#F6E7D8"/>
<path d="M67.5945 144.85C67.1855 144.85 66.9116 144.784 66.7764 144.646C66.6377 144.51 66.5719 144.244 66.5719 143.842V126.005C66.5719 125.735 66.5281 125.552 66.4404 125.465C66.3528 125.377 66.1702 125.333 65.8999 125.333H63.884C63.4822 125.333 63.2156 125.267 63.0805 125.129C62.9417 124.994 62.876 124.727 62.876 124.325V122.295C62.876 121.897 62.9417 121.63 63.0805 121.491C63.2156 121.356 63.4822 121.287 63.884 121.287H74.3144C74.7235 121.287 74.9937 121.356 75.1325 121.491C75.2676 121.63 75.337 121.897 75.337 122.295V124.325C75.337 124.727 75.2676 124.994 75.1325 125.129C74.9937 125.267 74.7235 125.333 74.3144 125.333H72.2985C72.0355 125.333 71.8529 125.377 71.7579 125.465C71.6703 125.552 71.6265 125.735 71.6265 126.005V143.842C71.6265 144.244 71.5571 144.51 71.4219 144.646C71.2832 144.784 71.0166 144.85 70.6185 144.85H67.5945Z" fill="#F6E7D8"/>
<path d="M87.7043 144.85C87.3025 144.85 87.0359 144.784 86.9008 144.645C86.762 144.51 86.6963 144.244 86.6963 143.842V122.294C86.6963 121.896 86.762 121.63 86.9008 121.491C87.0359 121.356 87.3025 121.286 87.7043 121.286H92.9195C94.877 121.286 96.4036 121.827 97.5066 122.908C98.6059 123.982 99.1573 125.402 99.1573 127.174V138.963C99.1573 140.738 98.6059 142.162 97.5066 143.243C96.4036 144.317 94.877 144.85 92.9195 144.85H87.7043ZM92.9195 140.818C93.2592 140.818 93.5404 140.708 93.7668 140.482C93.9896 140.248 94.1028 139.967 94.1028 139.635V126.502C94.1028 126.173 93.9896 125.895 93.7668 125.669C93.5404 125.446 93.2592 125.333 92.9195 125.333H92.2475C92.0503 125.333 91.9188 125.37 91.8531 125.435C91.7837 125.505 91.7508 125.636 91.7508 125.83V140.307C91.7508 140.511 91.7837 140.65 91.8531 140.716C91.9188 140.785 92.0503 140.818 92.2475 140.818H92.9195Z" fill="#F6E7D8"/>
<path d="M109.879 145.186C107.929 145.186 106.406 144.653 105.307 143.579C104.204 142.498 103.656 141.074 103.656 139.299V126.838C103.656 125.067 104.204 123.646 105.307 122.572C106.406 121.491 107.929 120.951 109.879 120.951C111.837 120.951 113.364 121.491 114.467 122.572C115.566 123.646 116.117 125.067 116.117 126.838V139.299C116.117 141.074 115.566 142.498 114.467 143.579C113.364 144.653 111.837 145.186 109.879 145.186ZM109.879 141.154C110.219 141.154 110.5 141.045 110.727 140.818C110.95 140.584 111.063 140.303 111.063 139.971V126.166C111.063 125.837 110.95 125.56 110.727 125.333C110.5 125.11 110.219 124.997 109.879 124.997C109.547 124.997 109.27 125.11 109.047 125.333C108.82 125.56 108.711 125.837 108.711 126.166V139.971C108.711 140.303 108.82 140.584 109.047 140.818C109.27 141.045 109.547 141.154 109.879 141.154Z" fill="#F6E7D8"/>
<path d="M139.254 145.025C137.8 145.025 136.763 144.719 136.142 144.105C135.529 143.484 135.222 142.44 135.222 140.979V136.772C135.222 136.432 135.163 136.151 135.047 135.924C134.937 135.701 134.714 135.588 134.375 135.588H134.039C133.841 135.588 133.71 135.625 133.644 135.69C133.575 135.76 133.542 135.895 133.542 136.1V143.842C133.542 144.244 133.472 144.51 133.337 144.645C133.199 144.784 132.932 144.85 132.534 144.85H129.495C129.094 144.85 128.827 144.784 128.692 144.645C128.553 144.51 128.487 144.244 128.487 143.842V122.294C128.487 121.896 128.553 121.63 128.692 121.491C128.827 121.356 129.094 121.286 129.495 121.286H134.375C136.332 121.286 137.859 121.827 138.962 122.908C140.061 123.982 140.612 125.402 140.612 127.174V129.701C140.612 130.49 140.485 131.125 140.233 131.6C139.988 132.068 139.721 132.433 139.429 132.696C139.068 133.017 138.673 133.258 138.246 133.412V133.748C138.626 133.905 138.962 134.138 139.254 134.449C139.506 134.723 139.739 135.102 139.955 135.588C140.167 136.067 140.276 136.684 140.276 137.443V140.131C140.276 140.522 140.338 140.756 140.466 140.833C140.601 140.913 140.751 140.971 140.919 141.008C141.094 141.037 141.255 141.092 141.401 141.169C141.547 141.249 141.62 141.468 141.62 141.826V144.178C141.62 144.51 141.562 144.733 141.445 144.85C141.335 144.967 141.113 145.025 140.773 145.025H139.254ZM134.375 131.556C134.714 131.556 134.995 131.447 135.222 131.22C135.445 130.997 135.558 130.716 135.558 130.373V126.502C135.558 126.173 135.445 125.895 135.222 125.669C134.995 125.446 134.714 125.333 134.375 125.333H134.039C133.841 125.333 133.71 125.37 133.644 125.435C133.575 125.505 133.542 125.636 133.542 125.83V131.045C133.542 131.249 133.575 131.388 133.644 131.454C133.71 131.523 133.841 131.556 134.039 131.556H134.375Z" fill="#F6E7D8"/>
<path d="M150.998 145.186C150.099 145.186 149.288 145.055 148.558 144.792C147.828 144.521 147.207 144.134 146.703 143.637C146.206 143.141 145.815 142.553 145.534 141.87C145.249 141.191 145.11 140.446 145.11 139.635V122.294C145.11 121.896 145.176 121.63 145.315 121.491C145.45 121.356 145.717 121.286 146.118 121.286H149.157C149.555 121.286 149.822 121.356 149.96 121.491C150.095 121.63 150.165 121.896 150.165 122.294V139.795C150.165 140.186 150.289 140.511 150.545 140.774C150.808 141.03 151.129 141.154 151.509 141.154C151.889 141.154 152.203 141.03 152.458 140.774C152.721 140.511 152.853 140.186 152.853 139.795V122.294C152.853 121.896 152.919 121.63 153.057 121.491C153.193 121.356 153.459 121.286 153.861 121.286H155.877C156.286 121.286 156.556 121.356 156.695 121.491C156.83 121.63 156.899 121.896 156.899 122.294V139.635C156.899 140.446 156.757 141.191 156.476 141.87C156.191 142.553 155.796 143.141 155.292 143.637C154.785 144.134 154.168 144.521 153.437 144.792C152.714 145.055 151.903 145.186 150.998 145.186Z" fill="#F6E7D8"/>
<path d="M162.406 144.85C162.005 144.85 161.738 144.784 161.603 144.645C161.464 144.51 161.398 144.244 161.398 143.842V122.294C161.398 121.896 161.464 121.63 161.603 121.491C161.738 121.356 162.005 121.286 162.406 121.286H164.773C165.171 121.286 165.46 121.356 165.635 121.491C165.818 121.63 165.964 121.885 166.073 122.265L168.805 131.045H169.141V122.294C169.141 121.896 169.207 121.63 169.345 121.491C169.481 121.356 169.747 121.286 170.149 121.286H172.165C172.574 121.286 172.844 121.356 172.983 121.491C173.118 121.63 173.187 121.896 173.187 122.294V143.842C173.187 144.244 173.118 144.51 172.983 144.645C172.844 144.784 172.574 144.85 172.165 144.85H169.813C169.411 144.85 169.119 144.784 168.936 144.645C168.761 144.51 168.615 144.251 168.498 143.871L165.781 135.092H165.445V143.842C165.445 144.244 165.376 144.51 165.24 144.645C165.102 144.784 164.835 144.85 164.437 144.85H162.406Z" fill="#F6E7D8"/>
<mask id="mask7_682_2136" style="mask-type:luminance" maskUnits="userSpaceOnUse" x="132" y="64" width="20" height="31">
<path d="M132.888 64.7056H151.21V94.2367H132.888V64.7056Z" fill="white"/>
</mask>
<g mask="url(#mask7_682_2136)">
<path d="M151.21 94.2367H132.888V64.6727H151.21V94.2367Z" fill="#F6E7D8"/>
</g>
<mask id="mask8_682_2136" style="mask-type:luminance" maskUnits="userSpaceOnUse" x="146" y="70" width="11" height="19">
<path d="M146.111 70.7645H156.315V88.1851H146.111V70.7645Z" fill="white"/>
</mask>
<g mask="url(#mask8_682_2136)">
<path d="M156.315 88.1851H146.111V70.7681H156.315V88.1851Z" fill="#F6E7D8"/>
</g>
<mask id="mask9_682_2136" style="mask-type:luminance" maskUnits="userSpaceOnUse" x="146" y="64" width="3" height="31">
<path d="M146.375 64.7056H148.658V94.2367H146.375V64.7056Z" fill="white"/>
</mask>
<g mask="url(#mask9_682_2136)">
<path d="M148.658 94.2366H146.375V64.7019H148.658V94.2366Z" fill="#303030"/>
</g>
<path d="M11.5129 63.4645L9.78912 67.2189C9.73068 67.3285 9.64668 67.3577 9.54077 67.3066L8.83957 66.9852C8.73365 66.9377 8.70809 66.861 8.76652 66.7515L9.2486 65.7143L1.53532 62.1644L1.05324 63.2016C0.994803 63.3112 0.907152 63.3331 0.790284 63.2746L0.103685 62.9679C-0.00222618 62.9204 -0.0277913 62.8437 0.0306427 62.7341L3.24451 55.7513C3.29564 55.6344 3.37234 55.6015 3.47825 55.649L5.66952 56.657C5.78639 56.7081 5.82291 56.7885 5.77178 56.9053L5.42118 57.6504C5.3737 57.7599 5.2897 57.7891 5.17283 57.738L3.84346 57.1245L2.07583 60.9811L5.45039 62.5296L6.91124 59.3303C6.96968 59.2135 7.05368 59.1806 7.15959 59.2281L7.84619 59.5495C7.95575 59.6006 7.97766 59.6809 7.91923 59.7978L6.45838 62.9971L9.78912 64.531L10.4903 62.9971C10.5378 62.8912 10.6145 62.8619 10.7241 62.9094L11.4253 63.2308C11.5312 63.2819 11.5604 63.3586 11.5129 63.4645Z" fill="#F6E7D8"/>
<path d="M21.778 46.4591L19.6598 49.3515C19.5794 49.4611 19.4918 49.4794 19.3968 49.41L18.7833 48.9571C18.6883 48.8804 18.6774 48.7891 18.754 48.6796L19.426 47.7592L12.5893 42.7339L11.9173 43.6542C11.8406 43.7638 11.7493 43.7821 11.6397 43.7127L11.0262 43.2598C10.9385 43.1941 10.9349 43.1064 11.0115 42.9969L13.1298 40.1044C13.2174 39.9985 13.3051 39.9802 13.3927 40.0459L14.0063 40.4988C14.1159 40.5682 14.1232 40.6558 14.0355 40.7618L13.3635 41.6821L20.2003 46.7074L20.8723 45.7871C20.9599 45.6812 21.0512 45.6666 21.1498 45.7433L21.7634 46.1961C21.8584 46.2655 21.8657 46.3532 21.778 46.4591Z" fill="#F6E7D8"/>
<path d="M34.7948 32.7034L32.1945 35.0115C32.1068 35.0992 32.0192 35.0955 31.9315 34.9969L31.4494 34.4564C31.3618 34.3505 31.3618 34.2519 31.4494 34.1642L32.3113 33.4046L26.6578 27.0791L24.5396 28.9636L25.5914 30.1323C25.69 30.2419 25.6864 30.3441 25.5768 30.4391L24.9486 30.9942C24.8537 31.0818 24.7551 31.0745 24.6565 30.965L22.9911 29.0951C22.9035 29.0001 22.9108 28.9052 23.0057 28.8175L29.7548 22.8134C29.8498 22.7258 29.9448 22.7331 30.0324 22.828L31.6978 24.6979C31.7927 24.8075 31.7927 24.9024 31.6978 24.9901L31.055 25.5598C30.9564 25.6475 30.8578 25.6402 30.7628 25.5306L29.711 24.3619L27.622 26.2172L33.2755 32.5427L34.0497 31.8561C34.1556 31.7611 34.2543 31.7648 34.3419 31.8707L34.824 32.4112C34.9116 32.5098 34.9007 32.6084 34.7948 32.7034Z" fill="#F6E7D8"/>
<path d="M55.2657 19.3848L54.5499 19.75C54.3746 19.8486 54.2212 19.8925 54.097 19.8815C53.9692 19.8633 53.8231 19.8012 53.6588 19.6916L46.6905 15.7035L45.4488 14.9438L45.4196 14.9584L48.8234 21.4884L49.846 20.9479C49.9628 20.8895 50.0505 20.9114 50.1089 21.0064L50.4595 21.693C50.518 21.8025 50.4888 21.8829 50.3719 21.9413L47.1872 23.6067C47.0704 23.6651 46.9827 23.6432 46.9243 23.5336L46.5737 22.847C46.5152 22.7521 46.5445 22.6717 46.6613 22.6133L47.6693 22.0874L43.7396 14.564L42.7316 15.0899C42.6148 15.1484 42.5271 15.1264 42.4687 15.0169L42.1181 14.3303C42.0597 14.2353 42.0889 14.155 42.2057 14.0965L44.061 13.1178C44.324 12.9936 44.6307 13.0265 44.9813 13.22L51.8473 17.1497L53.279 18.0408L53.2936 18.0262L49.8168 11.3794L48.7942 11.9199C48.6956 11.971 48.6189 11.9418 48.5604 11.8322L48.2098 11.1456C48.1514 11.0507 48.1697 10.9776 48.2683 10.9265L51.4675 9.24653C51.5844 9.18809 51.672 9.21001 51.7305 9.30496L52.0811 9.99156C52.1395 10.1011 52.1103 10.1815 51.9934 10.2399L50.9708 10.7804L55.3388 19.1365C55.3972 19.246 55.3716 19.3264 55.2657 19.3848Z" fill="#F6E7D8"/>
<path d="M75.9734 12.522L68.2601 14.4358C68.1433 14.465 68.0702 14.4211 68.041 14.3043L67.8511 13.5592C67.8219 13.4424 67.8657 13.3693 67.9826 13.3401L69.0928 13.0626L67.0622 4.82336L65.952 5.10093C65.8351 5.13014 65.7621 5.08632 65.7329 4.96945L65.5429 4.22442C65.5137 4.1185 65.5576 4.04911 65.6744 4.0199L73.3877 2.10618C73.5228 2.07697 73.6068 2.11714 73.6361 2.22305L74.2204 4.56041C74.2496 4.68824 74.1948 4.76493 74.0597 4.79415L73.2854 4.98406C73.1686 5.01327 73.0955 4.9658 73.0663 4.83797L72.7157 3.42095L68.3186 4.51659L69.2097 8.12488L72.891 7.21916C73.0152 7.18264 73.0955 7.21916 73.1248 7.33603L73.3001 8.06645C73.3293 8.18332 73.2781 8.26366 73.154 8.30019L69.4726 9.20591L70.3491 12.7558L74.7317 11.6747L74.3811 10.2577C74.3592 10.1518 74.414 10.0788 74.5418 10.0386L75.316 9.84869C75.4512 9.81947 75.5279 9.85964 75.5498 9.96555L76.1341 12.3029C76.1633 12.4198 76.1085 12.4928 75.9734 12.522Z" fill="#F6E7D8"/>
<path d="M89.3622 10.8693L88.5149 10.884C88.3871 10.884 88.325 10.8255 88.325 10.7087L88.2666 7.20262C88.2666 7.07844 88.3287 7.01271 88.4565 7.01271L89.4061 6.9981C89.5229 6.9981 89.5814 7.06384 89.5814 7.18801V7.50939C89.5887 7.69565 89.7128 7.944 89.9466 8.25443C90.1803 8.56851 90.4067 8.82051 90.6332 9.01407C90.8669 9.21128 91.1773 9.37563 91.5681 9.51076C91.9552 9.64954 92.3752 9.71163 92.8245 9.70067C93.5914 9.69337 94.1903 9.52537 94.6213 9.20398C95.0486 8.88259 95.2568 8.43703 95.2495 7.86C95.2385 7.53861 95.1107 7.26105 94.8696 7.02731C94.6249 6.79358 94.3036 6.61462 93.9055 6.4868C93.5147 6.35167 93.0801 6.22385 92.6053 6.10698C92.1379 5.99011 91.6631 5.85863 91.1883 5.71255C90.7099 5.56646 90.2753 5.39116 89.8881 5.18664C89.4974 4.97482 89.176 4.68265 88.924 4.31013C88.6683 3.93031 88.5442 3.47745 88.5442 2.95154C88.5222 2.11521 88.8254 1.41765 89.4499 0.862529C90.0817 0.307407 90.929 0.0225414 91.9918 0.000628217C93.3431 -0.0176322 94.3364 0.362189 94.9719 1.14009L94.9281 0.205147C94.9281 0.0882792 94.9902 0.0298452 95.118 0.0298452L95.9653 0.0152367C96.0821 0.0152367 96.1406 0.0736707 96.1406 0.190539L96.1844 3.44823C96.1844 3.57606 96.126 3.63814 96.0091 3.63814L95.0596 3.65275C94.9427 3.65275 94.8842 3.59067 94.8842 3.46284V3.0538C94.8733 2.64477 94.6359 2.23573 94.1684 1.82669C93.7083 1.41765 93.0363 1.22044 92.1525 1.22774C91.4878 1.2387 90.9582 1.40304 90.5601 1.72443C90.1584 2.03851 89.9648 2.43659 89.9758 2.92233C89.9758 3.27293 90.1 3.57606 90.3556 3.82805C90.6076 4.07275 90.9327 4.26631 91.3344 4.41239C91.7325 4.55117 92.1707 4.68265 92.6492 4.80682C93.1349 4.92369 93.617 5.05152 94.0954 5.18664C94.5811 5.32542 95.023 5.49342 95.4248 5.69794C95.8338 5.90246 96.1625 6.18733 96.4181 6.54523C96.6701 6.90679 96.8016 7.33409 96.8126 7.83078C96.8199 8.70729 96.5131 9.43772 95.8922 10.0221C95.2787 10.5991 94.3474 10.8949 93.102 10.9132C92.1853 10.9314 91.4257 10.7634 90.8231 10.4019C90.2168 10.044 89.7749 9.64954 89.4937 9.21859L89.5375 10.694C89.5375 10.8109 89.4791 10.8693 89.3622 10.8693Z" fill="#F6E7D8"/>
<path d="M117.243 13.7394L109.237 12.001C109.11 11.9718 109.062 11.8987 109.091 11.7818L109.252 11.0222C109.27 10.9163 109.343 10.8761 109.471 10.9053L110.581 11.1537L112.378 2.85605L111.268 2.60771C111.14 2.57849 111.093 2.50179 111.122 2.37397L111.283 1.62894C111.312 1.52302 111.389 1.48285 111.516 1.51207L115.008 2.27171C115.143 2.30093 115.198 2.37397 115.168 2.49084L115.008 3.20665C114.979 3.34543 114.895 3.39656 114.759 3.36735L113.649 3.119L111.852 11.4166L116.498 12.4392L116.805 11.0076C116.834 10.8907 116.911 10.8432 117.038 10.8615L117.842 11.0368C117.959 11.066 118.003 11.1391 117.973 11.2559L117.477 13.5933C117.447 13.7175 117.367 13.7686 117.243 13.7394Z" fill="#F6E7D8"/>
<path d="M140.746 17.3372C140.034 18.8054 139.011 19.7841 137.678 20.2735C136.352 20.7702 135.019 20.6899 133.675 20.0398C132.331 19.386 131.433 18.3781 130.987 17.0158C130.549 15.6536 130.684 14.2365 131.396 12.7647C132.105 11.2966 133.138 10.347 134.493 9.91609C135.845 9.48879 137.159 9.5874 138.438 10.2083C139.723 10.8328 140.607 11.8079 141.096 13.13C141.582 14.4557 141.465 15.8581 140.746 17.3372ZM132.288 16.7529C132.645 17.7755 133.285 18.5059 134.201 18.9441C135.114 19.3897 136.078 19.4335 137.094 19.0756C138.105 18.725 138.905 17.9508 139.489 16.7529C140.074 15.555 140.18 14.452 139.811 13.4367C139.438 12.4251 138.807 11.7056 137.912 11.2747C137.024 10.8364 136.064 10.7889 135.034 11.1286C134.011 11.4609 133.208 12.2242 132.624 13.4221C132.039 14.62 131.926 15.7303 132.288 16.7529Z" fill="#F6E7D8"/>
<path d="M155.971 35.0454L155.357 34.5341C155.259 34.4465 155.248 34.3588 155.328 34.2712L156 33.4823C154.773 33.5882 153.597 33.1682 152.479 32.226C151.358 31.291 150.748 30.115 150.653 28.7053C150.555 27.3029 151.037 25.9699 152.099 24.7026C152.801 23.8553 153.608 23.271 154.524 22.9496C155.448 22.6282 156.329 22.5551 157.169 22.7304C158.016 22.9057 158.779 23.2783 159.462 23.8407C160.638 24.8268 161.175 25.8968 161.069 27.0546L161.814 26.1634C161.873 26.0575 161.953 26.0466 162.062 26.1342L162.705 26.6601C162.8 26.7478 162.811 26.8427 162.734 26.9377L160.762 29.2897C160.682 29.3846 160.594 29.3919 160.499 29.3043L159.783 28.7053C159.685 28.625 159.674 28.5373 159.754 28.4424L159.857 28.3109C160.138 27.9822 160.185 27.4599 160.003 26.7478C159.816 26.0283 159.363 25.3673 158.644 24.761C157.921 24.1584 157.022 23.9101 155.941 24.016C154.868 24.1146 153.918 24.6588 153.093 25.6521C152.264 26.6455 151.899 27.6754 151.997 28.7345C152.103 29.8046 152.516 30.6373 153.239 31.2326C153.958 31.8352 154.619 32.2004 155.226 32.3282C155.828 32.4524 156.369 32.4451 156.847 32.299L157.592 31.4079L155.445 29.611C155.357 29.5307 155.357 29.443 155.445 29.3481L155.883 28.8076C155.96 28.7199 156.044 28.7126 156.131 28.793L159.112 31.291C159.199 31.3677 159.203 31.4517 159.126 31.5394L156.219 35.0308C156.139 35.1184 156.058 35.1221 155.971 35.0454Z" fill="#F6E7D8"/>
<path d="M166.777 47.2191L164.572 44.385C164.491 44.2864 164.499 44.2024 164.586 44.1367L165.2 43.6546C165.295 43.5889 165.382 43.6035 165.463 43.6984L166.164 44.5895L172.855 39.3597L172.153 38.4686C172.073 38.3736 172.084 38.286 172.183 38.2056L172.782 37.7382C172.877 37.6724 172.964 37.687 173.045 37.782L175.25 40.616C175.338 40.7256 175.331 40.8132 175.236 40.879L174.637 41.3465C174.538 41.4268 174.447 41.4122 174.359 41.3026L173.658 40.3969L166.967 45.6267L167.669 46.5325C167.756 46.6384 167.749 46.726 167.654 46.7954L167.04 47.2775C166.953 47.3432 166.865 47.325 166.777 47.2191Z" fill="#F6E7D8"/>
<path d="M177.714 66.0425L177.364 65.312C177.276 65.1367 177.239 64.9833 177.261 64.8592C177.29 64.7314 177.356 64.5853 177.466 64.4209L181.702 57.6134L182.506 56.3862L182.491 56.3716L175.844 59.5417L176.341 60.5789C176.399 60.7031 176.377 60.7907 176.283 60.8418L175.581 61.1778C175.472 61.2253 175.391 61.1851 175.333 61.061L173.784 57.8179C173.726 57.701 173.748 57.617 173.858 57.5695L174.559 57.2335C174.654 57.1824 174.734 57.2189 174.792 57.3358L175.275 58.3584L182.944 54.6917L182.462 53.6691C182.403 53.5522 182.425 53.4719 182.535 53.4207L183.222 53.0847C183.327 53.0373 183.411 53.0701 183.47 53.187L184.376 55.0861C184.5 55.349 184.456 55.6522 184.244 55.9918L180.066 62.7117L179.117 64.1141L179.131 64.1288L185.91 60.8857L185.413 59.8485C185.362 59.7389 185.391 59.6622 185.5 59.6147L186.187 59.2787C186.293 59.2276 186.37 59.2568 186.421 59.3664L187.969 62.6241C188.028 62.7409 188.002 62.8213 187.896 62.8724L187.21 63.2084C187.1 63.2559 187.02 63.223 186.961 63.1062L186.465 62.069L177.948 66.1447C177.838 66.1922 177.762 66.1593 177.714 66.0425Z" fill="#F6E7D8"/>
</svg>
